HIERARCHY
ROOT Pelvis
{
	OFFSET 0.000000 0.000000 0.000000
	CHANNELS 6 Xposition Yposition Zposition Zrotation Yrotation Xrotation 
	JOINT Left_hip
	{
		OFFSET 0.076090 -0.089427 -0.010735
		CHANNELS 3 Zrotation Yrotation Xrotation
		JOINT Left_knee
		{
			OFFSET 0.030200 -0.359518 -0.003501
			CHANNELS 3 Zrotation Yrotation Xrotation
			JOINT Left_ankle
			{
				OFFSET -0.011005 -0.371022 -0.045888
				CHANNELS 3 Zrotation Yrotation Xrotation
				JOINT Left_foot
				{
					OFFSET 0.023930 -0.052103 0.111084
					CHANNELS 3 Zrotation Yrotation Xrotation
					End Site
					{
						OFFSET 0.000000 0.000000 0.000000
					}
				}
			}
		}
	}
	JOINT Right_hip
	{
		OFFSET -0.073836 -0.088112 -0.007709
		CHANNELS 3 Zrotation Yrotation Xrotation
		JOINT Right_knee
		{
			OFFSET -0.035715 -0.367809 -0.006536
			CHANNELS 3 Zrotation Yrotation Xrotation
			JOINT Right_ankle
			{
				OFFSET 0.013718 -0.371958 -0.043815
				CHANNELS 3 Zrotation Yrotation Xrotation
				JOINT Right_foot
				{
					OFFSET -0.021936 -0.046387 0.114542
					CHANNELS 3 Zrotation Yrotation Xrotation
					End Site
					{
						OFFSET 0.000000 0.000000 0.000000
					}
				}
			}
		}
	}
	JOINT Spine1
	{
		OFFSET -0.001865 0.102064 -0.019455
		CHANNELS 3 Zrotation Yrotation Xrotation
		JOINT Spine2
		{
			OFFSET 0.003082 0.129260 -0.001938
			CHANNELS 3 Zrotation Yrotation Xrotation
			JOINT Spine3
			{
				OFFSET 0.001104 0.048093 0.026561
				CHANNELS 3 Zrotation Yrotation Xrotation
				JOINT Neck
				{
					OFFSET -0.002010 0.204222 -0.047183
					CHANNELS 3 Zrotation Yrotation Xrotation
					JOINT Head
					{
						OFFSET 0.005050 0.063649 0.048489
						CHANNELS 3 Zrotation Yrotation Xrotation
						End Site
						{
							OFFSET 0.000000 0.000000 0.000000
						}
					}
				}
				JOINT Left_collar
				{
					OFFSET 0.072979 0.114065 -0.031633
					CHANNELS 3 Zrotation Yrotation Xrotation
					JOINT Left_shoulder
					{
						OFFSET 0.083419 0.032092 -0.006530
						CHANNELS 3 Zrotation Yrotation Xrotation
						JOINT Left_elbow
						{
							OFFSET 0.239393 -0.012014 -0.025060
							CHANNELS 3 Zrotation Yrotation Xrotation
							JOINT Left_wrist
							{
								OFFSET 0.227297 0.008116 0.000384
								CHANNELS 3 Zrotation Yrotation Xrotation
								JOINT Left_palm
								{
									OFFSET 0.074607 -0.009248 -0.012277
									CHANNELS 3 Zrotation Yrotation Xrotation
									End Site
									{
										OFFSET 0.000000 0.000000 0.000000
									}
								}
							}
						}
					}
				}
				JOINT Right_collar
				{
					OFFSET -0.074980 0.111880 -0.037894
					CHANNELS 3 Zrotation Yrotation Xrotation
					JOINT Right_shoulder
					{
						OFFSET -0.087565 0.034353 -0.009323
						CHANNELS 3 Zrotation Yrotation Xrotation
						JOINT Right_elbow
						{
							OFFSET -0.236838 -0.013719 -0.019794
							CHANNELS 3 Zrotation Yrotation Xrotation
							JOINT Right_wrist
							{
								OFFSET -0.235053 0.006433 -0.003853
								CHANNELS 3 Zrotation Yrotation Xrotation
								JOINT Right_palm
								{
									OFFSET -0.075499 -0.006894 -0.009792
									CHANNELS 3 Zrotation Yrotation Xrotation
									End Site
									{
										OFFSET 0.000000 0.000000 0.000000
									}
								}
							}
						}
					}
				}
			}
		}
	}
}
MOTION
Frames: 5
Frame Time: 0.100000
0.293204 0.177572 -0.836653 177.612608 13.834063 -22.127205 -5.015080 0.924899 9.374133 -2.931050 -10.683209 14.189955 3.475095 11.853999 -14.886274 2.582236 9.635534 -5.352980 -3.129580 -1.739170 -12.322678 -0.851420 -2.280392 55.920929 8.755965 -13.539755 -5.888301 -11.042396 5.136639 -10.320657 6.238477 1.257659 15.265237 -3.005428 8.038066 2.530764 -0.119645 6.008426 1.985200 1.854891 -1.270132 -10.692309 -6.918898 -1.337157 4.786897 -20.749631 -7.596372 -0.023703 -62.807124 -5.120954 6.788640 6.569933 -1.051432 -2.408361 1.798996 0.426008 -7.151929 -1.203298 -2.007244 -8.602141 13.086905 32.238829 -0.612647 42.100929 43.336782 4.842943 -2.273175 -4.880997 -13.484855 -4.422801 -3.004919 12.028172 1.792244 3.507310 -4.023026 
0.296986 0.150714 -0.750490 176.210349 18.068185 -21.313870 -0.846420 2.147434 14.551794 -2.364584 -14.075785 13.264283 -0.018126 7.270756 -13.967173 1.439884 10.854541 -4.880050 -4.327797 -0.488198 -12.830987 -2.096423 -1.390085 17.221305 12.408699 -11.660593 -4.078338 -16.031363 7.098569 -4.133046 5.231470 0.040306 13.178783 -3.163540 5.174572 3.067361 0.210124 4.211736 1.217188 1.963268 1.499210 -9.569997 -4.147370 -2.461155 7.275767 -17.072875 -16.941683 -0.574101 -59.006052 -17.654425 12.743441 9.444607 -14.947666 3.859081 2.900557 -2.670221 -1.043964 -2.113230 -2.047127 -5.713710 11.531725 34.450174 -1.259919 44.709532 42.652173 6.863647 -1.932309 -3.987691 -12.683699 -5.051265 -3.026160 8.239280 4.564521 4.680149 -5.213089 
0.300884 0.143615 -0.642042 174.441832 23.193086 -22.663190 3.570198 0.971220 20.382322 -2.737970 -18.338409 16.038851 0.182956 6.686287 -15.567226 -1.317038 10.255601 -4.986589 -4.272189 -0.067289 -10.494818 0.529295 1.043768 10.783598 13.401951 -6.376995 1.026215 -12.876374 6.124993 -2.143561 4.258619 0.005148 10.383749 -2.557462 4.391875 4.320764 0.355697 3.972904 0.667120 0.095096 0.645902 -5.473796 -3.357060 -4.500581 9.630940 -12.882411 -22.181442 -3.261443 -57.176783 -29.356889 14.347485 16.256509 -25.195036 -3.295369 6.318311 -4.099423 -5.503149 -1.725761 -1.660311 0.533647 11.308209 35.602029 -0.852016 44.898320 40.865160 7.093217 -2.127311 -4.317473 -11.246681 -4.507213 -3.270728 6.206800 5.364608 5.105796 -4.141826 
0.301778 0.123734 -0.537762 170.895533 26.468520 -27.153545 6.032563 -1.457177 12.610435 -4.072862 -13.907205 43.718062 -4.983407 8.302586 -2.379055 -0.027838 8.874111 -15.330064 1.044591 -1.104768 -3.233167 1.070455 0.747058 17.513636 3.502737 -5.175522 -6.657877 -5.354153 0.712440 -1.626932 5.896182 0.946576 11.241346 -1.481842 4.098762 3.759539 1.164337 3.989097 1.729787 -2.443176 -2.932930 -3.077073 -3.821338 -4.646577 11.969415 -11.550721 -19.053494 -3.668310 -66.847624 -28.403503 19.532176 23.260614 -35.801256 0.474813 17.652050 -4.399728 -6.794273 0.094045 -0.416254 3.902534 11.042297 33.720380 -1.025854 48.610153 38.918727 7.688625 -3.595688 -4.147494 -7.176487 -12.055398 -2.405169 5.953255 2.806513 3.396712 -1.518748 
0.289921 0.097004 -0.456533 170.555171 31.219175 -29.075278 6.197993 -1.151527 -3.309230 -1.404658 -1.737382 64.245717 -2.491632 11.929710 -2.034673 -0.442497 9.395279 -14.819129 1.429111 -4.578119 9.203522 1.220988 1.386697 9.967570 -0.723794 -6.045015 -9.255756 -1.511397 -1.871624 -0.605827 6.206562 4.681527 12.937213 -1.131169 2.899212 3.316780 0.822265 4.110063 2.367687 -1.623641 -6.224116 -1.977165 -4.189535 -5.340080 12.485946 -17.966266 -13.175602 0.275856 -64.395617 -18.013615 16.527597 12.185783 -28.260023 11.389518 4.544088 -3.278916 -5.369849 -1.693408 -0.428952 -0.273719 15.332889 30.087227 1.095233 44.870650 37.457790 5.777639 -2.692440 -3.482144 -6.962811 -6.778630 -3.591639 4.920731 4.436311 3.824052 -2.789054 
